<?xml version="1.0" encoding="UTF-8"?>
<!DOCTYPE svg PUBLIC "-//W3C//DTD SVG 1.1//EN" "http://www.w3.org/Graphics/SVG/1.1/DTD/svg11.dtd">
<!-- Creator: CorelDRAW X7 -->
<svg xmlns="http://www.w3.org/2000/svg" xml:space="preserve" width="1.04167in" height="0.694445in" version="1.1" style="shape-rendering:geometricPrecision; text-rendering:geometricPrecision; image-rendering:optimizeQuality; fill-rule:evenodd; clip-rule:evenodd"
viewBox="0 0 2003 1336"
 xmlns:xlink="http://www.w3.org/1999/xlink">
 <defs>
  <style type="text/css">
   <![CDATA[
    .fil1 {fill:none}
    .fil0 {fill:#FFFFFF;fill-rule:nonzero}
   ]]>
  </style>
 </defs>
 <g id="Layer_x0020_1">
  <metadata id="CorelCorpID_0Corel-Layer"/>
  <g id="_20433890272">
   <path class="fil0" d="M1939 396c-87,-421 -904,-448 -1431,-127l0 35c526,-271 1273,-269 1341,119 23,128 -50,262 -179,339l0 100c156,-57 315,-241 269,-466zm-958 736c-364,34 -742,-19 -795,-303 -26,-140 37,-289 122,-381l0 -49c-152,134 -235,303 -187,503 60,256 386,401 882,353 196,-19 453,-82 632,-181l0 -139c-162,97 -430,177 -654,197z"/>
   <path class="fil0" d="M1606 334l-96 0 0 425c0,49 24,93 96,100l0 -525z"/>
   <path class="fil0" d="M471 489l-96 0 0 277c0,50 24,94 96,100l0 -377z"/>
   <polygon class="fil0" points="375,438 470,438 470,347 375,347 "/>
   <path class="fil0" d="M1042 862c-78,0 -110,-54 -110,-106l0 -369 94 0 0 102 71 0 0 76 -71 0 0 185c0,21 10,33 33,33l38 0 0 79 -55 0z"/>
   <path class="fil0" d="M1292 561c-32,0 -57,17 -68,39 -6,14 -8,24 -9,41l146 0c-2,-41 -20,-80 -69,-80zm-77 144c0,48 31,84 84,84 42,0 63,-12 87,-36l58 56c-37,37 -76,60 -145,60 -91,0 -178,-50 -178,-194 0,-123 76,-192 175,-192 101,0 159,81 159,188l0 34 -240 0z"/>
   <path class="fil0" d="M727 565c28,0 40,14 40,36l0 262 94 0 0 -262c0,-53 -28,-112 -111,-112l-195 0 0 374 94 0 0 -298 78 0z"/>
   <path class="fil0" d="M1708 410c-21,0 -38,-17 -38,-38 0,-21 17,-38 38,-38 21,0 38,17 38,38 0,21 -17,38 -38,38zm0 -69c-17,0 -31,14 -31,31 0,17 14,32 31,32 18,0 32,-15 32,-32 0,-17 -14,-31 -32,-31z"/>
   <path class="fil0" d="M1725 395l-7 0c-1,0 -1,-1 -2,-1l-9 -16c0,-1 -1,-1 -2,-1l-2 0 -2 0 0 16c0,1 0,2 -2,2l-6 0c-1,0 -1,-1 -1,-2l0 -41c0,-2 0,-3 2,-4 3,0 9,0 12,0 12,0 19,3 19,14l0 1c0,7 -3,11 -9,12l10 17c0,1 1,1 1,1 0,1 -1,2 -2,2zm-9 -33c0,-4 -3,-6 -9,-6l-4 0 -2 0 0 13c1,0 5,1 6,1 6,0 9,-2 9,-7l0 -1z"/>
   <rect class="fil1" width="2003" height="1336"/>
  </g>
 </g>
</svg>
